<svg width="165" height="28" viewBox="0 0 165 28" fill="none" xmlns="http://www.w3.org/2000/svg">
<path d="M111.804 4.49234V13.3905H111.053V4.49234H111.804Z" fill="white"/>
<path d="M120.849 4.49234V13.3905H120.091L114.976 5.78795V13.3905H114.225V4.49234H114.976L120.104 12.0949V4.49234H120.849Z" fill="white"/>
<path d="M125.903 12.2843L128.708 4.49234H129.527L126.215 13.3905H125.61L125.903 12.2843ZM123.007 4.49234L125.799 12.2843L126.105 13.3905H125.494L122.188 4.49234H123.007Z" fill="white"/>
<path d="M131.764 4.49234V13.3905H131.012V4.49234H131.764Z" fill="white"/>
<path d="M139.22 11.2026C139.22 10.9582 139.179 10.7402 139.098 10.5487C139.016 10.3572 138.882 10.1861 138.694 10.0353C138.511 9.88052 138.263 9.73792 137.949 9.60754C137.639 9.47309 137.252 9.34068 136.788 9.21031C136.344 9.084 135.942 8.94548 135.584 8.79473C135.225 8.64399 134.918 8.47083 134.661 8.27527C134.408 8.07971 134.215 7.85155 134.08 7.5908C133.946 7.32597 133.879 7.01837 133.879 6.66798C133.879 6.32575 133.952 6.01407 134.099 5.73295C134.245 5.45183 134.451 5.20941 134.716 5.0057C134.985 4.80199 135.301 4.64513 135.663 4.53512C136.03 4.42512 136.431 4.37012 136.867 4.37012C137.49 4.37012 138.028 4.48827 138.48 4.72458C138.937 4.96088 139.289 5.28071 139.538 5.68406C139.79 6.08333 139.917 6.5315 139.917 7.02855H139.165C139.165 6.6415 139.073 6.29723 138.89 5.99574C138.711 5.69017 138.45 5.45183 138.108 5.28071C137.77 5.10552 137.356 5.01792 136.867 5.01792C136.378 5.01792 135.967 5.09329 135.633 5.24404C135.303 5.39071 135.052 5.58831 134.881 5.83684C134.714 6.0813 134.63 6.35427 134.63 6.65576C134.63 6.86762 134.671 7.06319 134.753 7.24245C134.834 7.41764 134.966 7.58265 135.15 7.73747C135.337 7.88822 135.584 8.03082 135.889 8.16527C136.195 8.29564 136.572 8.41991 137.02 8.53806C137.492 8.66843 137.912 8.81307 138.279 8.97196C138.645 9.13086 138.955 9.3142 139.208 9.52199C139.46 9.7257 139.652 9.96404 139.782 10.237C139.913 10.51 139.978 10.8278 139.978 11.1904C139.978 11.553 139.9 11.8789 139.746 12.1682C139.595 12.4534 139.381 12.6958 139.104 12.8955C138.831 13.0951 138.507 13.2479 138.132 13.3538C137.761 13.4597 137.356 13.5127 136.916 13.5127C136.521 13.5127 136.128 13.4618 135.736 13.3599C135.345 13.2581 134.987 13.1012 134.661 12.8893C134.339 12.6734 134.08 12.3964 133.885 12.0582C133.693 11.72 133.598 11.3167 133.598 10.8481H134.343C134.343 11.223 134.418 11.5387 134.569 11.7954C134.72 12.0521 134.92 12.2599 135.168 12.4188C135.421 12.5777 135.698 12.6938 135.999 12.7671C136.305 12.8364 136.61 12.871 136.916 12.871C137.385 12.871 137.79 12.8017 138.132 12.6632C138.478 12.5247 138.745 12.3312 138.933 12.0826C139.124 11.83 139.22 11.5367 139.22 11.2026Z" fill="white"/>
<path d="M142.52 4.49234V13.3905H141.768V4.49234H142.52Z" fill="white"/>
<path d="M148.002 9.11252H145.496L145.484 8.47694H147.641C148.081 8.47694 148.456 8.41379 148.766 8.28749C149.076 8.16119 149.31 7.97378 149.469 7.72525C149.632 7.47265 149.713 7.163 149.713 6.79632C149.713 6.42149 149.634 6.11185 149.475 5.8674C149.316 5.61887 149.078 5.43553 148.76 5.31738C148.442 5.19922 148.043 5.14015 147.562 5.14015H145.692V13.3905H144.94V4.49234H147.562C148.014 4.49234 148.42 4.53716 148.778 4.62679C149.137 4.71643 149.442 4.85699 149.695 5.04848C149.947 5.23997 150.139 5.48238 150.269 5.77573C150.404 6.065 150.471 6.41131 150.471 6.81466C150.471 7.18134 150.389 7.51339 150.226 7.81081C150.064 8.10415 149.833 8.34453 149.536 8.53195C149.243 8.71529 148.89 8.82937 148.479 8.87418L148.002 9.11252ZM147.947 13.3905H145.258L145.643 12.7488H147.947C148.387 12.7488 148.762 12.6754 149.071 12.5288C149.385 12.378 149.626 12.1641 149.793 11.8871C149.96 11.61 150.043 11.28 150.043 10.897C150.043 10.5589 149.97 10.2553 149.823 9.98645C149.676 9.71755 149.452 9.50569 149.151 9.35087C148.849 9.19197 148.466 9.11252 148.002 9.11252H146.444L146.456 8.47694H148.662L148.796 8.70306C149.196 8.74381 149.544 8.86807 149.841 9.07586C150.143 9.27957 150.375 9.53828 150.538 9.852C150.705 10.1657 150.789 10.51 150.789 10.8848C150.789 11.4226 150.669 11.8789 150.428 12.2538C150.192 12.6245 149.86 12.9077 149.432 13.1032C149.008 13.2947 148.513 13.3905 147.947 13.3905Z" fill="white"/>
<path d="M157.762 12.7488V13.3905H153.148V12.7488H157.762ZM153.368 4.49234V13.3905H152.616V4.49234H153.368Z" fill="white"/>
<path d="M164.747 12.7488V13.3905H159.742V12.7488H164.747ZM159.968 4.49234V13.3905H159.216V4.49234H159.968ZM164.124 8.48306V9.12475H159.742V8.48306H164.124ZM164.716 4.49234V5.14015H159.742V4.49234H164.716Z" fill="white"/>
<path d="M113.998 21.022H111.731L111.718 19.9037H113.698C114.033 19.9037 114.316 19.8548 114.548 19.757C114.784 19.6551 114.964 19.5105 115.086 19.3231C115.208 19.1316 115.269 18.9014 115.269 18.6325C115.269 18.3351 115.212 18.0927 115.098 17.9052C114.984 17.7178 114.809 17.5813 114.572 17.4958C114.34 17.4102 114.043 17.3674 113.68 17.3674H112.195V25.0433H110.661V16.1452H113.68C114.169 16.1452 114.605 16.192 114.988 16.2857C115.375 16.3794 115.703 16.5261 115.972 16.7258C116.245 16.9213 116.451 17.1698 116.589 17.4713C116.732 17.7728 116.803 18.1314 116.803 18.5469C116.803 18.9136 116.715 19.2497 116.54 19.5553C116.365 19.8568 116.106 20.1033 115.764 20.2948C115.422 20.4863 114.996 20.6004 114.487 20.637L113.998 21.022ZM113.931 25.0433H111.248L111.938 23.8271H113.931C114.277 23.8271 114.566 23.7701 114.799 23.656C115.031 23.5379 115.204 23.3769 115.318 23.1732C115.436 22.9654 115.495 22.723 115.495 22.446C115.495 22.1567 115.444 21.9061 115.342 21.6943C115.241 21.4783 115.08 21.3133 114.86 21.1993C114.64 21.0811 114.352 21.022 113.998 21.022H112.275L112.287 19.9037H114.53L114.878 20.3253C115.367 20.3416 115.768 20.4496 116.082 20.6492C116.4 20.8489 116.636 21.1076 116.791 21.4254C116.946 21.7432 117.023 22.0854 117.023 22.4521C117.023 23.0184 116.899 23.4931 116.65 23.876C116.406 24.259 116.053 24.5503 115.593 24.75C115.133 24.9455 114.579 25.0433 113.931 25.0433Z" fill="white"/>
<path d="M120.196 16.1452H123.344C124.02 16.1452 124.596 16.247 125.073 16.4507C125.55 16.6545 125.914 16.9559 126.167 17.3552C126.424 17.7504 126.552 18.2393 126.552 18.8219C126.552 19.266 126.471 19.6572 126.308 19.9953C126.145 20.3335 125.914 20.6187 125.617 20.8509C125.32 21.0791 124.965 21.2563 124.554 21.3826L124.089 21.6087H121.26L121.247 20.3926H123.368C123.735 20.3926 124.04 20.3274 124.285 20.197C124.529 20.0666 124.713 19.8894 124.835 19.6653C124.961 19.4372 125.024 19.1805 125.024 18.8953C125.024 18.5856 124.963 18.3167 124.841 18.0886C124.723 17.8564 124.539 17.6791 124.291 17.5569C124.042 17.4306 123.727 17.3674 123.344 17.3674H121.73V25.0433H120.196V16.1452ZM125.275 25.0433L123.185 21.0465L124.792 21.0404L126.913 24.9639V25.0433H125.275Z" fill="white"/>
<path d="M133.172 17.3308L130.514 25.0433H128.906L132.255 16.1452H133.282L133.172 17.3308ZM135.397 25.0433L132.732 17.3308L132.616 16.1452H133.649L137.01 25.0433H135.397ZM135.268 21.7432V22.9593H130.428V21.7432H135.268Z" fill="white"/>
<path d="M144.791 22.1465H146.319C146.27 22.7291 146.107 23.2486 145.83 23.7049C145.553 24.1572 145.164 24.5137 144.663 24.7744C144.162 25.0352 143.553 25.1655 142.836 25.1655C142.286 25.1655 141.791 25.0677 141.351 24.8722C140.911 24.6725 140.534 24.3914 140.22 24.0288C139.906 23.6621 139.666 23.2201 139.499 22.7027C139.336 22.1852 139.254 21.6067 139.254 20.967V20.2276C139.254 19.5879 139.338 19.0094 139.505 18.4919C139.676 17.9745 139.921 17.5325 140.238 17.1658C140.556 16.795 140.937 16.5119 141.381 16.3163C141.829 16.1207 142.333 16.0229 142.891 16.0229C143.6 16.0229 144.199 16.1533 144.687 16.4141C145.176 16.6748 145.555 17.0354 145.824 17.4958C146.097 17.9562 146.264 18.4838 146.325 19.0786H144.797C144.757 18.6956 144.667 18.3677 144.529 18.0947C144.394 17.8217 144.194 17.6139 143.93 17.4713C143.665 17.3247 143.318 17.2513 142.891 17.2513C142.54 17.2513 142.235 17.3165 141.974 17.4469C141.713 17.5773 141.495 17.7688 141.32 18.0214C141.145 18.274 141.012 18.5856 140.923 18.9564C140.837 19.3231 140.794 19.7427 140.794 20.2153V20.967C140.794 21.4152 140.833 21.8226 140.911 22.1893C140.992 22.5519 141.114 22.8636 141.277 23.1243C141.444 23.3851 141.656 23.5868 141.913 23.7294C142.17 23.872 142.477 23.9433 142.836 23.9433C143.272 23.9433 143.624 23.874 143.893 23.7355C144.166 23.5969 144.372 23.3953 144.51 23.1304C144.653 22.8615 144.746 22.5336 144.791 22.1465Z" fill="white"/>
<path d="M155.164 23.8271V25.0433H150.44V23.8271H155.164ZM150.874 16.1452V25.0433H149.34V16.1452H150.874ZM154.546 19.8609V21.0587H150.44V19.8609H154.546ZM155.133 16.1452V17.3674H150.44V16.1452H155.133Z" fill="white"/>
<path d="M162.725 22.7515C162.725 22.5682 162.696 22.4052 162.639 22.2626C162.586 22.12 162.491 21.9897 162.352 21.8715C162.214 21.7534 162.018 21.6393 161.765 21.5293C161.517 21.4152 161.199 21.2991 160.812 21.1809C160.388 21.0506 159.997 20.9059 159.639 20.747C159.284 20.5841 158.975 20.3966 158.71 20.1848C158.445 19.9688 158.239 19.7224 158.093 19.4453C157.946 19.1642 157.873 18.8403 157.873 18.4736C157.873 18.111 157.948 17.781 158.099 17.4836C158.253 17.1861 158.471 16.9295 158.753 16.7135C159.038 16.4935 159.374 16.3244 159.761 16.2063C160.148 16.0841 160.576 16.0229 161.044 16.0229C161.704 16.0229 162.273 16.1452 162.749 16.3896C163.23 16.6341 163.599 16.9621 163.856 17.3736C164.116 17.7851 164.247 18.2393 164.247 18.7364H162.725C162.725 18.443 162.662 18.1843 162.535 17.9602C162.413 17.7321 162.226 17.5528 161.973 17.4224C161.725 17.2921 161.409 17.2269 161.026 17.2269C160.663 17.2269 160.362 17.2819 160.122 17.3919C159.881 17.5019 159.702 17.6506 159.584 17.838C159.466 18.0254 159.406 18.2373 159.406 18.4736C159.406 18.6406 159.445 18.7934 159.523 18.932C159.6 19.0664 159.718 19.1927 159.877 19.3109C160.036 19.4249 160.236 19.5329 160.476 19.6348C160.716 19.7366 161 19.8344 161.325 19.9281C161.818 20.0748 162.248 20.2377 162.615 20.417C162.982 20.5922 163.287 20.7918 163.532 21.0159C163.776 21.24 163.959 21.4946 164.082 21.7798C164.204 22.061 164.265 22.3808 164.265 22.7393C164.265 23.1142 164.19 23.4523 164.039 23.7538C163.888 24.0512 163.672 24.3059 163.391 24.5177C163.114 24.7255 162.78 24.8864 162.389 25.0005C162.002 25.1105 161.57 25.1655 161.093 25.1655C160.665 25.1655 160.244 25.1085 159.828 24.9944C159.417 24.8803 159.042 24.7072 158.704 24.4749C158.366 24.2386 158.097 23.9453 157.897 23.5949C157.697 23.2405 157.598 22.8269 157.598 22.3543H159.131C159.131 22.6436 159.18 22.8901 159.278 23.0938C159.38 23.2975 159.521 23.4645 159.7 23.5949C159.879 23.7212 160.087 23.8149 160.323 23.876C160.564 23.9371 160.82 23.9677 161.093 23.9677C161.452 23.9677 161.751 23.9168 161.992 23.8149C162.236 23.7131 162.419 23.5705 162.542 23.3871C162.664 23.2038 162.725 22.9919 162.725 22.7515Z" fill="white"/>
<path d="M41.9994 15.6952H36.4158L36.3855 13.3498H41.4546C42.2919 13.3498 43.0233 13.2086 43.6487 12.9261C44.2742 12.6437 44.7584 12.2402 45.1014 11.7156C45.4544 11.1809 45.631 10.5454 45.631 9.80901C45.631 9.00198 45.4746 8.34627 45.1619 7.84188C44.8593 7.3274 44.3902 6.95416 43.7546 6.72214C43.1292 6.48003 42.3323 6.35897 41.3638 6.35897H37.0664V26H34.146V3.96816H41.3638C42.4937 3.96816 43.5024 4.08417 44.3902 4.31619C45.2779 4.53812 46.0294 4.8912 46.6448 5.37541C47.2702 5.84954 47.7444 6.45481 48.0672 7.19122C48.39 7.92763 48.5514 8.81031 48.5514 9.83927C48.5514 10.7472 48.3194 11.5693 47.8553 12.3057C47.3913 13.0321 46.7457 13.6272 45.9185 14.0913C45.1014 14.5553 44.143 14.8529 43.0434 14.9841L41.9994 15.6952ZM41.8632 26H35.2657L36.9151 23.6243H41.8632C42.7913 23.6243 43.5781 23.4629 44.2237 23.1401C44.8794 22.8172 45.3788 22.3633 45.7218 21.7782C46.0647 21.183 46.2362 20.4819 46.2362 19.6749C46.2362 18.8578 46.09 18.1516 45.7974 17.5564C45.5049 16.9613 45.0459 16.5023 44.4204 16.1795C43.795 15.8567 42.988 15.6952 41.9994 15.6952H37.8381L37.8684 13.3498H43.5579L44.1783 14.1972C45.2375 14.288 46.1354 14.5906 46.8718 15.1051C47.6082 15.6095 48.1681 16.2551 48.5514 17.042C48.9448 17.8288 49.1415 18.6964 49.1415 19.6446C49.1415 21.0166 48.8389 22.1767 48.2336 23.1249C47.6384 24.0631 46.7961 24.7793 45.7066 25.2736C44.6171 25.7578 43.336 26 41.8632 26Z" fill="#72E5FE"/>
<path d="M67.4509 23.6243V26H55.7844V23.6243H67.4509ZM56.3745 3.96816V26H53.4541V3.96816H56.3745ZM65.9075 13.4406V15.8163H55.7844V13.4406H65.9075ZM67.2996 3.96816V6.35897H55.7844V3.96816H67.2996Z" fill="#72E5FE"/>
<path d="M82.8096 20.4315C82.8096 19.917 82.7289 19.463 82.5675 19.0696C82.4162 18.6661 82.1438 18.3029 81.7504 17.9801C81.3671 17.6573 80.8324 17.3496 80.1464 17.0571C79.4705 16.7646 78.6131 16.467 77.574 16.1643C76.4846 15.8415 75.501 15.4834 74.6234 15.09C73.7457 14.6865 72.9942 14.2275 72.3687 13.713C71.7433 13.1985 71.2641 12.6084 70.9312 11.9426C70.5983 11.2768 70.4319 10.5152 70.4319 9.65769C70.4319 8.80022 70.6084 8.00833 70.9615 7.28201C71.3145 6.55569 71.8189 5.9252 72.4746 5.39054C73.1404 4.8458 73.9323 4.42211 74.8503 4.11948C75.7683 3.81684 76.7922 3.66553 77.9221 3.66553C79.5765 3.66553 80.9787 3.98329 82.1287 4.61883C83.2888 5.24427 84.1715 6.06643 84.7767 7.0853C85.382 8.09408 85.6846 9.17347 85.6846 10.3235H82.7794C82.7794 9.49628 82.6028 8.76492 82.2497 8.12939C81.8967 7.48377 81.362 6.97937 80.6458 6.61621C79.9295 6.24296 79.0216 6.05634 77.9221 6.05634C76.883 6.05634 76.0256 6.2127 75.3497 6.52542C74.6738 6.83815 74.1694 7.26183 73.8365 7.79649C73.5137 8.33114 73.3523 8.94145 73.3523 9.62743C73.3523 10.0915 73.4481 10.5152 73.6398 10.8985C73.8415 11.2717 74.1492 11.6198 74.5628 11.9426C74.9865 12.2654 75.5212 12.563 76.1668 12.8354C76.8225 13.1077 77.6043 13.37 78.5122 13.6222C79.7631 13.9753 80.8425 14.3687 81.7504 14.8025C82.6583 15.2363 83.4048 15.7255 83.9899 16.2703C84.5851 16.8049 85.0239 17.4152 85.3063 18.1012C85.5989 18.7771 85.7452 19.5437 85.7452 20.4012C85.7452 21.299 85.5636 22.1111 85.2004 22.8374C84.8373 23.5637 84.3177 24.1841 83.6419 24.6986C82.966 25.2131 82.1539 25.6116 81.2057 25.894C80.2675 26.1664 79.2184 26.3026 78.0583 26.3026C77.0394 26.3026 76.0356 26.1614 75.047 25.8789C74.0685 25.5964 73.1758 25.1727 72.3687 24.6078C71.5718 24.0429 70.9312 23.3469 70.447 22.5197C69.9729 21.6824 69.7358 20.7139 69.7358 19.6144H72.6411C72.6411 20.3709 72.7874 21.0216 73.0799 21.5664C73.3725 22.101 73.7709 22.5449 74.2753 22.8979C74.7898 23.251 75.3698 23.5133 76.0155 23.6848C76.6712 23.8462 77.3521 23.9269 78.0583 23.9269C79.0771 23.9269 79.9396 23.7857 80.6458 23.5032C81.3519 23.2208 81.8866 22.8172 82.2497 22.2927C82.623 21.7681 82.8096 21.1477 82.8096 20.4315Z" fill="#72E5FE"/>
<path d="M97.6084 3.96816V26H94.7334V3.96816H97.6084ZM104.69 3.96816V6.35897H87.6669V3.96816H104.69Z" fill="#72E5FE"/>
<path fill-rule="evenodd" clip-rule="evenodd" d="M8.37163 3.02039C7.84608 3.00362 7.15485 3.15261 6.22956 3.73076C5.99866 3.87504 5.71808 4.21877 5.48614 4.92693C5.25924 5.61968 5.11991 6.53949 5.07639 7.64287C4.98952 9.8449 5.29027 12.5924 5.84397 15.2952C6.3975 17.9971 7.19002 20.5874 8.05207 22.4771C8.4855 23.4272 8.91426 24.1505 9.30598 24.6186C9.68215 25.0681 9.88914 25.125 9.91527 25.1322C9.9188 25.1332 9.91902 25.1332 9.9159 25.1332C10.1992 25.1332 10.2817 25.0659 10.2956 25.0545C10.3188 25.0355 10.3844 24.9693 10.4436 24.7531C10.5772 24.2655 10.552 23.564 10.5172 22.5958L10.5144 22.5161C10.483 21.6384 10.4434 20.4852 10.7866 19.5549C10.9721 19.052 11.2861 18.5593 11.8072 18.2033C12.3247 17.8499 12.9477 17.6989 13.6331 17.6989V19.823C13.2565 19.823 13.083 19.9043 13.0052 19.9574C12.9311 20.008 12.851 20.0961 12.7794 20.2902C12.6083 20.7539 12.602 21.4592 12.6371 22.4401C12.6397 22.5117 12.6425 22.5852 12.6454 22.6605C12.677 23.4782 12.7162 24.4965 12.4923 25.3142C12.3606 25.795 12.1149 26.3097 11.6423 26.6972C11.1602 27.0924 10.5621 27.2574 9.9159 27.2574C8.96016 27.2574 8.20644 26.6144 7.67703 25.9818C7.11225 25.307 6.59073 24.3916 6.11954 23.3586C5.17234 21.2823 4.33822 18.529 3.76308 15.7215C3.18811 12.9149 2.85816 9.98702 2.95392 7.55915C3.00172 6.34758 3.15703 5.21381 3.46754 4.26578C3.773 3.33315 4.27257 2.44889 5.104 1.92938C6.30337 1.17998 7.40475 0.86434 8.43938 0.897355C9.4682 0.930185 10.313 1.30449 11.0007 1.72469C11.342 1.93326 11.6555 2.16005 11.9336 2.36702C12.0118 2.42526 12.0859 2.48081 12.1569 2.53411C12.3501 2.67916 12.5212 2.80756 12.6951 2.92815C13.1844 3.26751 13.4499 3.3611 13.6331 3.3611L13.6331 5.48521C12.7544 5.48521 12.0241 5.04777 11.4846 4.67357C11.2751 4.52826 11.0578 4.36514 10.8551 4.21298C10.7901 4.16422 10.7267 4.11658 10.6654 4.07101C10.4 3.87349 10.1493 3.69371 9.89314 3.5372C9.3859 3.22725 8.90298 3.03734 8.37163 3.02039Z" fill="white"/>
<path fill-rule="evenodd" clip-rule="evenodd" d="M18.895 3.02039C19.4205 3.00362 20.1117 3.15261 21.037 3.73076C21.2679 3.87504 21.5485 4.21877 21.7805 4.92693C22.0074 5.61968 22.1467 6.53949 22.1902 7.64287C22.2771 9.8449 21.9763 12.5924 21.4226 15.2952C20.8691 17.9971 20.0766 20.5874 19.2145 22.4771C18.7811 23.4272 18.3523 24.1505 17.9606 24.6186C17.5845 25.0681 17.3775 25.125 17.3513 25.1322C17.3478 25.1332 17.3476 25.1332 17.3507 25.1332C17.0674 25.1332 16.9849 25.0659 16.971 25.0545C16.9478 25.0355 16.8822 24.9693 16.823 24.7531C16.6894 24.2655 16.7146 23.564 16.7494 22.5958L16.7522 22.5161C16.7836 21.6384 16.8232 20.4852 16.48 19.5549C16.2945 19.052 15.9805 18.5593 15.4594 18.2033C14.9419 17.8499 14.3189 17.6989 13.6335 17.6989V19.823C14.0101 19.823 14.1836 19.9043 14.2614 19.9574C14.3355 20.008 14.4156 20.0961 14.4872 20.2902C14.6583 20.7539 14.6646 21.4592 14.6295 22.4401C14.6269 22.5117 14.6241 22.5852 14.6212 22.6605C14.5896 23.4782 14.5504 24.4965 14.7743 25.3142C14.906 25.795 15.1517 26.3097 15.6243 26.6972C16.1064 27.0924 16.7045 27.2574 17.3507 27.2574C18.3064 27.2574 19.0602 26.6144 19.5896 25.9818C20.1544 25.307 20.6759 24.3916 21.1471 23.3586C22.0943 21.2823 22.9284 18.529 23.5035 15.7215C24.0785 12.9149 24.4084 9.98702 24.3127 7.55915C24.2649 6.34758 24.1096 5.21381 23.7991 4.26578C23.4936 3.33315 22.994 2.44889 22.1626 1.92938C20.9632 1.17998 19.8619 0.86434 18.8272 0.897355C17.7984 0.930185 16.9536 1.30449 16.2659 1.72469C15.9246 1.93326 15.6111 2.16005 15.333 2.36702C15.2548 2.42526 15.1807 2.48081 15.1097 2.53411C14.9165 2.67916 14.7454 2.80756 14.5715 2.92815C14.0822 3.26751 13.8167 3.3611 13.6335 3.3611L13.6335 5.48521C14.5122 5.48521 15.2425 5.04777 15.782 4.67357C15.9915 4.52826 16.2088 4.36514 16.4115 4.21298C16.4765 4.16422 16.54 4.11658 16.6012 4.07101C16.8666 3.87349 17.1173 3.69371 17.3735 3.5372C17.8807 3.22725 18.3636 3.03734 18.895 3.02039Z" fill="white"/>
<path fill-rule="evenodd" clip-rule="evenodd" d="M0.937988 12.3884C0.938005 11.8019 1.41352 11.3264 2.00007 11.3264L10.4473 11.3267L10.4473 13.4508L2.00001 13.4505C1.41346 13.4505 0.937971 12.975 0.937988 12.3884ZM25 13.4508H16.8196V11.3267H25C25.5866 11.3267 26.0621 11.8022 26.0621 12.3887C26.0621 12.9753 25.5866 13.4508 25 13.4508Z" fill="white"/>
<path fill-rule="evenodd" clip-rule="evenodd" d="M8.32324 11.8578C8.32324 10.0981 9.74974 8.67163 11.5094 8.67163H15.7576C17.5173 8.67163 18.9438 10.0981 18.9438 11.8578C18.9438 13.6175 17.5173 15.044 15.7576 15.044H11.5094C9.74974 15.044 8.32324 13.6175 8.32324 11.8578ZM11.5094 10.7957C10.9229 10.7957 10.4474 11.2712 10.4474 11.8578C10.4474 12.4444 10.9229 12.9199 11.5094 12.9199H15.7576C16.3442 12.9199 16.8197 12.4444 16.8197 11.8578C16.8197 11.2712 16.3442 10.7957 15.7576 10.7957H11.5094Z" fill="white"/>
</svg>
