<svg width="73" height="17" viewBox="0 0 73 17" fill="none" xmlns="http://www.w3.org/2000/svg">
<path d="M8.02441 0.359375V16H5.34961V0.359375H8.02441ZM12.9336 0.359375V2.50781H0.483398V0.359375H12.9336ZM27.167 7.75V8.60938C27.167 9.79102 27.013 10.8509 26.7051 11.7891C26.3971 12.7272 25.9567 13.5257 25.3838 14.1846C24.818 14.8434 24.1377 15.3483 23.3428 15.6992C22.5479 16.043 21.667 16.2148 20.7002 16.2148C19.7406 16.2148 18.8633 16.043 18.0684 15.6992C17.2806 15.3483 16.5967 14.8434 16.0166 14.1846C15.4365 13.5257 14.9854 12.7272 14.6631 11.7891C14.348 10.8509 14.1904 9.79102 14.1904 8.60938V7.75C14.1904 6.56836 14.348 5.51204 14.6631 4.58105C14.9782 3.6429 15.4222 2.8444 15.9951 2.18555C16.5752 1.51953 17.2591 1.01465 18.0469 0.670898C18.8418 0.319987 19.7191 0.144531 20.6787 0.144531C21.6455 0.144531 22.5264 0.319987 23.3213 0.670898C24.1162 1.01465 24.8001 1.51953 25.373 2.18555C25.946 2.8444 26.3864 3.6429 26.6943 4.58105C27.0094 5.51204 27.167 6.56836 27.167 7.75ZM24.4707 8.60938V7.72852C24.4707 6.85482 24.3848 6.08496 24.2129 5.41895C24.0482 4.74577 23.8011 4.18359 23.4717 3.73242C23.1494 3.27409 22.752 2.93034 22.2793 2.70117C21.8066 2.46484 21.2731 2.34668 20.6787 2.34668C20.0843 2.34668 19.5544 2.46484 19.0889 2.70117C18.6234 2.93034 18.2259 3.27409 17.8965 3.73242C17.5742 4.18359 17.3271 4.74577 17.1553 5.41895C16.9834 6.08496 16.8975 6.85482 16.8975 7.72852V8.60938C16.8975 9.48307 16.9834 10.2565 17.1553 10.9297C17.3271 11.6029 17.5778 12.1722 17.9072 12.6377C18.2438 13.096 18.6449 13.4434 19.1104 13.6797C19.5758 13.9089 20.1058 14.0234 20.7002 14.0234C21.3018 14.0234 21.8353 13.9089 22.3008 13.6797C22.7663 13.4434 23.1602 13.096 23.4824 12.6377C23.8047 12.1722 24.0482 11.6029 24.2129 10.9297C24.3848 10.2565 24.4707 9.48307 24.4707 8.60938ZM35.8037 10.167H31.7324V8.0293H35.8037C36.5127 8.0293 37.0856 7.91471 37.5225 7.68555C37.9593 7.45638 38.278 7.14128 38.4785 6.74023C38.6862 6.33203 38.79 5.86654 38.79 5.34375C38.79 4.84961 38.6862 4.3877 38.4785 3.95801C38.278 3.52116 37.9593 3.17025 37.5225 2.90527C37.0856 2.6403 36.5127 2.50781 35.8037 2.50781H32.5596V16H29.8633V0.359375H35.8037C37.014 0.359375 38.0417 0.574219 38.8867 1.00391C39.7389 1.42643 40.387 2.01367 40.8311 2.76562C41.2751 3.51042 41.4971 4.36263 41.4971 5.32227C41.4971 6.33203 41.2751 7.19857 40.8311 7.92188C40.387 8.64518 39.7389 9.2002 38.8867 9.58691C38.0417 9.97363 37.014 10.167 35.8037 10.167Z" fill="#72E5FE"/>
<path d="M56.0527 0.305664V16H53.4639V3.37793L49.6289 4.67773V2.54004L55.7412 0.305664H56.0527ZM71.6826 6.86914V9.42578C71.6826 10.6504 71.5609 11.696 71.3174 12.5625C71.0811 13.4219 70.7373 14.1201 70.2861 14.6572C69.835 15.1943 69.2943 15.5882 68.6641 15.8389C68.041 16.0895 67.3428 16.2148 66.5693 16.2148C65.9535 16.2148 65.3805 16.1361 64.8506 15.9785C64.3278 15.821 63.8551 15.5739 63.4326 15.2373C63.0101 14.9007 62.6484 14.4674 62.3477 13.9375C62.054 13.4004 61.8249 12.7594 61.6602 12.0146C61.5026 11.2699 61.4238 10.4069 61.4238 9.42578V6.86914C61.4238 5.63737 61.5456 4.59896 61.7891 3.75391C62.0326 2.90169 62.3799 2.21061 62.8311 1.68066C63.2822 1.14355 63.8193 0.753255 64.4424 0.509766C65.0726 0.266276 65.7744 0.144531 66.5479 0.144531C67.1709 0.144531 67.7438 0.223307 68.2666 0.380859C68.7965 0.53125 69.2692 0.771159 69.6846 1.10059C70.1071 1.43001 70.4652 1.8597 70.7588 2.38965C71.0596 2.91243 71.2887 3.54622 71.4463 4.29102C71.6038 5.02865 71.6826 5.88802 71.6826 6.86914ZM69.0938 9.79102V6.48242C69.0938 5.85938 69.0579 5.31152 68.9863 4.83887C68.9147 4.35905 68.8073 3.95443 68.6641 3.625C68.528 3.28841 68.3561 3.01628 68.1484 2.80859C67.9408 2.59375 67.7044 2.43978 67.4395 2.34668C67.1745 2.24642 66.8773 2.19629 66.5479 2.19629C66.1468 2.19629 65.7887 2.27507 65.4736 2.43262C65.1585 2.58301 64.8936 2.8265 64.6787 3.16309C64.4639 3.49967 64.2992 3.94368 64.1846 4.49512C64.0771 5.03939 64.0234 5.70182 64.0234 6.48242V9.79102C64.0234 10.4212 64.0592 10.9762 64.1309 11.4561C64.2025 11.9359 64.3099 12.3477 64.4531 12.6914C64.5964 13.028 64.7682 13.3073 64.9688 13.5293C65.1764 13.7441 65.4128 13.9017 65.6777 14.002C65.9499 14.1022 66.2471 14.1523 66.5693 14.1523C66.9775 14.1523 67.3392 14.0736 67.6543 13.916C67.9694 13.7585 68.2344 13.5078 68.4492 13.1641C68.6641 12.8132 68.8252 12.3584 68.9326 11.7998C69.04 11.2412 69.0938 10.5716 69.0938 9.79102Z" fill="white"/>
</svg>
